<svg width="286" height="247" viewBox="0 0 286 247" fill="none" xmlns="http://www.w3.org/2000/svg">
<g clip-path="url(#clip0_509_44070)">
<rect width="182" height="13" transform="matrix(-1 0 0 1 234 0)" fill="white"/>
<rect width="234" height="13" transform="matrix(-1 0 0 1 260 13)" fill="white"/>
<rect width="260" height="13" transform="matrix(-1 0 0 1 273 26)" fill="white"/>
<rect width="260" height="13" transform="matrix(-1 0 0 1 273 39)" fill="white"/>
<rect width="286" height="13" transform="matrix(-1 0 0 1 286 52)" fill="white"/>
<rect width="286" height="13" transform="matrix(-1 0 0 1 286 65)" fill="white"/>
<rect width="286" height="13" transform="matrix(-1 0 0 1 286 78)" fill="white"/>
<rect width="286" height="13" transform="matrix(-1 0 0 1 286 91)" fill="white"/>
<rect width="286" height="13" transform="matrix(-1 0 0 1 286 104)" fill="white"/>
<rect width="286" height="13" transform="matrix(-1 0 0 1 286 117)" fill="white"/>
<rect width="286" height="13" transform="matrix(-1 0 0 1 286 130)" fill="white"/>
<rect width="260" height="13" transform="matrix(-1 0 0 1 273 143)" fill="white"/>
<rect width="260" height="13" transform="matrix(-1 0 0 1 273 156)" fill="white"/>
<rect width="234" height="13" transform="matrix(-1 0 0 1 260 169)" fill="white"/>
<rect width="195" height="13" transform="matrix(-1 0 0 1 234 182)" fill="white"/>
<rect width="39" height="13" transform="matrix(-1 0 0 1 91 195)" fill="white"/>
<rect width="26" height="13" transform="matrix(-1 0 0 1 91 208)" fill="white"/>
<rect width="26" height="13" transform="matrix(-1 0 0 1 104 221)" fill="white"/>
<rect width="13" height="13" transform="matrix(-1 0 0 1 104 234)" fill="white"/>
</g>
<defs>
<clipPath id="clip0_509_44070">
<rect width="286" height="247" fill="white" transform="matrix(-1 0 0 1 286 0)"/>
</clipPath>
</defs>
</svg>
